<?xml version="1.0" encoding="UTF-8"?>
<svg width="21px" height="20px" viewBox="0 0 21 20" version="1.1" xmlns="http://www.w3.org/2000/svg" xmlns:xlink="http://www.w3.org/1999/xlink">
    <title>Fill 4</title>
    <g id="Page-1" stroke="none" stroke-width="1" fill="none" fill-rule="evenodd">
        <g id="GitHub-Mark" transform="translate(-136.000000, -55.000000)" fill="#000000">
            <path d="M146.259079,55.193 C140.737731,55.193 136.26,59.6701172 136.26,65.1933069 C136.26,69.6114904 139.125036,73.3593034 143.098761,74.6816276 C143.599083,74.7737115 143.781409,74.4649236 143.781409,74.1997221 C143.781409,73.9627597 143.772815,73.33352 143.767904,72.4992402 C140.986357,73.1033103 140.399476,71.1584992 140.399476,71.1584992 C139.944582,70.0031538 139.288945,69.6955937 139.288945,69.6955937 C138.380998,69.0755624 139.357701,69.0878402 139.357701,69.0878402 C140.361415,69.1584379 140.889362,70.1185655 140.889362,70.1185655 C141.781348,71.6465437 143.230134,71.2051551 143.799826,70.9491619 C143.890682,70.3033472 144.149131,69.8625724 144.434591,69.6127182 C142.214142,69.3604085 139.879509,68.5021869 139.879509,64.6702706 C139.879509,63.57877 140.269331,62.6855566 140.909007,61.986947 C140.805873,61.7340234 140.462707,60.7168037 141.00723,59.340457 C141.00723,59.340457 141.846421,59.0715721 143.756854,60.3656572 C144.5543,60.1434282 145.410066,60.0329276 146.260307,60.0286303 C147.109934,60.0329276 147.965086,60.1434282 148.76376,60.3656572 C150.672965,59.0715721 151.510929,59.340457 151.510929,59.340457 C152.056679,60.7168037 151.713513,61.7340234 151.610993,61.986947 C152.251897,62.6855566 152.638649,63.57877 152.638649,64.6702706 C152.638649,68.5120092 150.300333,69.357339 148.073131,69.6047376 C148.431644,69.9135255 148.751482,70.5237345 148.751482,71.4568509 C148.751482,72.7932947 148.739204,73.8719036 148.739204,74.1997221 C148.739204,74.4673792 148.919689,74.7786226 149.426764,74.6810138 C153.39742,73.3556201 156.26,69.6102627 156.26,65.1933069 C156.26,59.6701172 151.782269,55.193 146.259079,55.193" id="Fill-4"></path>
        </g>
    </g>
</svg>