<?xml version="1.0" encoding="UTF-8"?>
<svg width="20px" height="18px" viewBox="0 0 20 18" version="1.1" xmlns="http://www.w3.org/2000/svg" xmlns:xlink="http://www.w3.org/1999/xlink">
    <title>Path</title>
    <g id="Telegram_(software)-Logo.wine" transform="translate(0.000000, 0.645402)" fill-rule="nonzero">
        <path d="M1.22614922,7.20195756 L13.1394774,2.29346185 C14.3154711,1.78216021 18.3036239,0.145994973 18.3036239,0.145994973 C18.3036239,0.145994973 20.1443098,-0.569827318 19.9909193,1.16859825 C19.9397891,1.88442054 19.5307478,4.38979856 19.1217065,7.09969723 L17.8434524,15.1271329 C17.8434524,15.1271329 17.7411921,16.3031267 16.8719793,16.5076473 C16.0027665,16.712168 14.5711219,15.7918251 14.3154711,15.5873044 C14.1109505,15.4339139 10.4807088,13.1330565 9.15132459,12.0081929 C8.79341344,11.701412 8.38437213,11.08785 9.20245475,10.3720277 C11.0431406,8.6847323 13.2417377,6.58839559 14.5711219,5.25901134 C15.1846839,4.64544937 15.7982459,3.21380479 13.2417377,4.95223036 L6.0323846,9.8095959 C6.0323846,9.8095959 5.21430199,10.3208975 3.68039708,9.86072607 C2.14649217,9.40055459 0.356936439,8.78699263 0.356936439,8.78699263 C0.356936439,8.78699263 -0.870187489,8.02004018 1.22614922,7.20195756 Z" id="Path"></path>
    </g>
</svg>