<?xml version="1.0" encoding="UTF-8"?>
<svg width="20px" height="17px" viewBox="0 0 20 17" version="1.1" xmlns="http://www.w3.org/2000/svg" xmlns:xlink="http://www.w3.org/1999/xlink">
    <title>Path</title>
    <g id="Page-1" stroke="none" stroke-width="1" fill="none" fill-rule="evenodd">
        <g id="Twitter_bird_logo_2012" fill="#000000">
            <path d="M20,1.92451141 C19.2630166,2.24973892 18.4723258,2.47053558 17.6428465,2.56899896 C18.4902283,2.06176339 19.1406833,1.25615396 19.4450246,0.298373862 C18.6513501,0.769804565 17.774131,1.10995077 16.8402208,1.29494256 C16.0913024,0.49828435 15.0261077,0 13.8445472,0 C11.5798896,0 9.74190661,1.83798299 9.74190661,4.10264061 C9.74190661,4.42488438 9.77771147,4.73817694 9.8493212,5.0365508 C6.43890795,4.8664777 3.41638073,3.23138893 1.39340594,0.748918395 C1.04132478,1.35461734 0.838430553,2.05877965 0.838430553,2.81068178 C0.838430553,4.23392511 1.56347904,5.49007907 2.66447859,6.22407877 C1.9931374,6.2031926 1.36058481,6.01820081 0.805609429,5.71087573 C0.805609429,5.72877816 0.805609429,5.74369685 0.805609429,5.76159928 C0.805609429,7.74876921 2.21990154,9.40772788 4.09667313,9.78367895 C3.75354319,9.87617485 3.38952708,9.9268984 3.01655975,9.9268984 C2.75100701,9.9268984 2.49440549,9.90004476 2.24377145,9.85230494 C2.7659257,11.4814262 4.28166493,12.6689542 6.07489184,12.7017753 C4.66955095,13.8027749 2.90317768,14.4591974 0.978666269,14.4591974 C0.647471282,14.4591974 0.322243771,14.4383112 0,14.4025063 C1.81411308,15.5661644 3.97135611,16.2464568 6.28972102,16.2464568 C13.835596,16.2464568 17.9621065,9.99552439 17.9621065,4.57407131 C17.9621065,4.39504699 17.9591228,4.21900642 17.9501716,4.04296584 C18.7527973,3.46412054 19.4480084,2.7420558 19.9970163,1.91854394 L20,1.92451141 Z" id="Path"></path>
        </g>
    </g>
</svg>