<?xml version="1.0" encoding="UTF-8"?>
<svg width="21px" height="12px" viewBox="0 0 21 12" version="1.1" xmlns="http://www.w3.org/2000/svg" xmlns:xlink="http://www.w3.org/1999/xlink">
    <title>VK Logo 192dp</title>
    <g id="Page-1" stroke="none" stroke-width="1" fill="none" fill-rule="evenodd">
        <g id="VK-Logo-192dp" transform="translate(0.200000, 0.000000)" fill="#000000" fill-rule="nonzero">
            <path d="M19.5411243,0.804250247 C19.6802192,0.340704535 19.5411243,0 18.8794073,0 L16.6913965,0 C16.1350166,0 15.8787068,0.29428745 15.7396118,0.618894477 C15.7396118,0.618894477 14.626852,3.33093384 13.0505466,5.09259509 C12.5405838,5.60255788 12.3088109,5.76462697 12.030621,5.76462697 C11.891526,5.76462697 11.690229,5.60255788 11.690229,5.13901217 L11.690229,0.804250247 C11.690229,0.247870364 11.5287851,0 11.0650831,0 L7.62678043,0 C7.27919928,0 7.07008797,0.258185272 7.07008797,0.502929906 C7.07008797,1.03039679 7.85808442,1.15198767 7.93935339,2.63545898 L7.93935339,5.85761743 C7.93935339,6.56403233 7.81182362,6.69218725 7.53363368,6.69218725 C6.79189803,6.69218725 4.98772685,3.96780126 3.91747701,0.850667333 C3.70774055,0.244744634 3.49737894,0 2.9381859,0 L0.750175124,0 C0.125029187,0 1.77677162e-14,0.29428745 1.77677162e-14,0.618894477 C1.77677162e-14,1.19840476 0.74189194,4.07282578 3.4539313,7.87433822 C5.26216592,10.4702567 7.80932304,11.8777728 10.1273642,11.8777728 C11.5183139,11.8777728 11.690229,11.5651998 11.690229,11.0267929 L11.690229,9.06461608 C11.690229,8.43947014 11.8219785,8.31475353 12.2622375,8.31475353 C12.5870009,8.31475353 13.1432245,8.4769789 14.4414963,9.72867735 C15.9249676,11.2119924 16.1693996,11.8777728 17.0039695,11.8777728 L19.1919803,11.8777728 C19.8171262,11.8777728 20.1296992,11.5651998 19.9493446,10.9483371 C19.752111,10.333506 19.0438207,9.44173537 18.1039137,8.38430101 C17.593951,7.78150404 16.8289286,7.13244628 16.597312,6.80799554 C16.272705,6.39071062 16.3653829,6.20535485 16.597312,5.83464331 C16.597312,5.83464331 19.2629343,2.07939167 19.5411243,0.804406534 L19.5411243,0.804250247 Z" id="Path"></path>
        </g>
    </g>
</svg>