<?xml version="1.0" encoding="UTF-8" standalone="no"?>
<svg width="20" height="20" viewBox="0 0 20 20" version="1.1" xmlns="http://www.w3.org/2000/svg" xmlns:xlink="http://www.w3.org/1999/xlink" xml:space="preserve" xmlns:serif="http://www.serif.com/" style="fill-rule:evenodd;clip-rule:evenodd;stroke-linejoin:round;stroke-miterlimit:2;">
    <g transform="matrix(1.24688,0,0,1.24688,-5.11226,-5.58603)">
        <path d="M12.98,17.5C7.57,17.5 4.28,13.74 4.15,7.5L6.9,7.5C6.99,12.09 9.08,14.03 10.68,14.43L10.68,7.5L13.3,7.5L13.3,11.46C14.85,11.29 16.46,9.49 17,7.5L19.6,7.5C19.198,9.563 17.959,11.37 16.18,12.49C18.164,13.517 19.623,15.339 20.19,17.5L17.35,17.5C16.75,15.6 15.28,14.13 13.3,13.93L13.3,17.5L12.98,17.5Z" style="fill-rule:nonzero;"/>
    </g>
</svg>
