<?xml version="1.0" encoding="UTF-8"?>
<svg width="15px" height="9px" viewBox="0 0 15 9" version="1.1" xmlns="http://www.w3.org/2000/svg" xmlns:xlink="http://www.w3.org/1999/xlink">
    <title>menu</title>
    <g id="Page-1" stroke="none" stroke-width="1" fill="none" fill-rule="evenodd">
        <path d="M13.9912109,1.77246094 C14.2783203,1.77246094 14.5175781,1.546875 14.5175781,1.25292969 C14.5175781,0.965820312 14.2783203,0.740234375 13.9912109,0.740234375 L1.25585938,0.740234375 C0.96875,0.740234375 0.743164062,0.965820312 0.743164062,1.25292969 C0.743164062,1.546875 0.96875,1.77246094 1.25585938,1.77246094 L13.9912109,1.77246094 Z M13.9912109,5.35449219 C14.2783203,5.35449219 14.5175781,5.12207031 14.5175781,4.83496094 C14.5175781,4.54785156 14.2783203,4.32226562 13.9912109,4.32226562 L1.25585938,4.32226562 C0.96875,4.32226562 0.743164062,4.54785156 0.743164062,4.83496094 C0.743164062,5.12207031 0.96875,5.35449219 1.25585938,5.35449219 L13.9912109,5.35449219 Z M8.5703125,8.9296875 C8.85742188,8.9296875 9.08984375,8.70410156 9.08984375,8.41699219 C9.08984375,8.12988281 8.85742188,7.89746094 8.5703125,7.89746094 L1.25585938,7.89746094 C0.96875,7.89746094 0.743164062,8.12988281 0.743164062,8.41699219 C0.743164062,8.70410156 0.96875,8.9296875 1.25585938,8.9296875 L8.5703125,8.9296875 Z" id="menu" fill="#000000" fill-rule="nonzero"></path>
    </g>
</svg>
