<?xml version="1.0" encoding="UTF-8"?>
<svg width="15px" height="14px" viewBox="0 0 15 14" version="1.1" xmlns="http://www.w3.org/2000/svg" xmlns:xlink="http://www.w3.org/1999/xlink">
    <title>pencil</title>
    <path d="M13.2822266,3.12988281 L14.1611328,2.26855469 C14.3779297,2.04589844 14.4907227,1.8203125 14.4995117,1.59179688 C14.5083008,1.36328125 14.4160156,1.14941406 14.2226562,0.950195312 L13.9150391,0.642578125 C13.7216797,0.443359375 13.5092773,0.352539063 13.277832,0.370117188 C13.0463867,0.387695313 12.8222656,0.501953125 12.6054688,0.712890625 L11.7265625,1.57421875 L13.2822266,3.12988281 Z M1.30273437,13.8701172 L3.27148437,13.1054688 L12.5175781,3.87695312 L10.9707031,2.33886719 L1.73339844,11.5673828 L0.924804687,13.4833984 C0.883789062,13.5947266 0.908691406,13.6972656 0.999511719,13.7910156 C1.09033203,13.8847656 1.19140625,13.9111328 1.30273437,13.8701172 Z" id="pencil" fill-rule="nonzero"></path>
</svg>
