<?xml version="1.0" encoding="UTF-8"?>
<svg width="14px" height="14px" viewBox="0 0 14 14" version="1.1" xmlns="http://www.w3.org/2000/svg" xmlns:xlink="http://www.w3.org/1999/xlink">
    <title>plus</title>

    <path d="M7.04394531,13.9140625 C7.27832031,13.9140625 7.47753906,13.8305664 7.64160156,13.6635742 C7.80566406,13.496582 7.88769531,13.2958984 7.88769531,13.0615234 L7.887,7.859 L13.1083984,7.85839844 C13.3369141,7.85839844 13.534668,7.7734375 13.7016602,7.60351562 C13.8686523,7.43359375 13.9521484,7.23144531 13.9521484,6.99707031 C13.9521484,6.76269531 13.8686523,6.56201172 13.7016602,6.39501953 C13.534668,6.22802734 13.3369141,6.14453125 13.1083984,6.14453125 L7.887,6.145 L7.88769531,0.932617188 C7.88769531,0.704101562 7.80566406,0.504882812 7.64160156,0.334960938 C7.47753906,0.165039062 7.27832031,0.080078125 7.04394531,0.080078125 C6.80371094,0.080078125 6.60009766,0.165039062 6.43310547,0.334960938 C6.26611328,0.504882812 6.18261719,0.704101562 6.18261719,0.932617188 L6.182,6.145 L0.970703125,6.14453125 C0.7421875,6.14453125 0.54296875,6.22802734 0.373046875,6.39501953 C0.203125,6.56201172 0.118164062,6.76269531 0.118164062,6.99707031 C0.118164062,7.23144531 0.203125,7.43359375 0.373046875,7.60351562 C0.54296875,7.7734375 0.7421875,7.85839844 0.970703125,7.85839844 L6.182,7.859 L6.18261719,13.0615234 C6.18261719,13.2958984 6.26611328,13.496582 6.43310547,13.6635742 C6.60009766,13.8305664 6.80371094,13.9140625 7.04394531,13.9140625 Z" id="plus" fill-rule="nonzero"></path>

</svg>
