<?xml version="1.0" encoding="UTF-8"?>
<svg width="17px" height="20px" viewBox="0 0 17 20" version="1.1" xmlns="http://www.w3.org/2000/svg" xmlns:xlink="http://www.w3.org/1999/xlink">
    <title>􀈑</title>
    <g id="Page-1" stroke="none" stroke-width="1" fill="none" fill-rule="evenodd">
        <path d="M12.2275391,19.5751953 C12.8486328,19.5751953 13.3481445,19.3950195 13.7260742,19.034668 C14.1040039,18.6743164 14.3076172,18.1806641 14.3369141,17.5537109 L14.9082031,5.53027344 L15.8574219,5.53027344 C16.0507812,5.53027344 16.2148438,5.46435547 16.3496094,5.33251953 C16.484375,5.20068359 16.5517578,5.03515625 16.5517578,4.8359375 C16.5517578,4.6484375 16.484375,4.48876953 16.3496094,4.35693359 C16.2148438,4.22509766 16.0507812,4.15917969 15.8574219,4.15917969 L12.122,4.16 L12.1220703,2.90234375 C12.1220703,2.28125 11.9331055,1.79492188 11.5551758,1.44335938 C11.1772461,1.09179688 10.6513672,0.916015625 9.97753906,0.916015625 L6.82226562,0.916015625 C6.15429688,0.916015625 5.63134766,1.09179688 5.25341797,1.44335938 C4.87548828,1.79492188 4.68652344,2.28125 4.68652344,2.90234375 L4.686,4.16 L0.959960938,4.15917969 C0.772460938,4.15917969 0.611328125,4.22509766 0.4765625,4.35693359 C0.341796875,4.48876953 0.274414062,4.6484375 0.274414062,4.8359375 C0.274414062,5.03515625 0.341796875,5.20068359 0.4765625,5.33251953 C0.611328125,5.46435547 0.772460938,5.53027344 0.959960938,5.53027344 L1.90917969,5.53027344 L2.48046875,17.5625 C2.50976562,18.1835938 2.71337891,18.6743164 3.09130859,19.034668 C3.46923828,19.3950195 3.97167969,19.5751953 4.59863281,19.5751953 L12.2275391,19.5751953 Z M10.671,4.16 L6.136,4.16 L6.13671875,2.98144531 C6.13671875,2.75878906 6.20849609,2.58007812 6.35205078,2.4453125 C6.49560547,2.31054688 6.68457031,2.24316406 6.91894531,2.24316406 L9.88085938,2.24316406 C10.1210938,2.24316406 10.3129883,2.31054688 10.456543,2.4453125 C10.6000977,2.58007812 10.671875,2.75878906 10.671875,2.98144531 L10.671,4.16 Z M12.0693359,18.1953125 L4.74804688,18.1953125 C4.5078125,18.1953125 4.31005859,18.1162109 4.15478516,17.9580078 C3.99951172,17.7998047 3.91601562,17.6005859 3.90429688,17.3603516 L3.34179688,5.53027344 L13.4580078,5.53027344 L12.9130859,17.3603516 C12.9013672,17.6064453 12.8193359,17.8071289 12.6669922,17.9624023 C12.5146484,18.1176758 12.3154297,18.1953125 12.0693359,18.1953125 Z M5.95214844,16.8154297 C6.12207031,16.8154297 6.25683594,16.7670898 6.35644531,16.6704102 C6.45605469,16.5737305 6.50292969,16.4462891 6.49707031,16.2880859 L6.2421875,7.49902344 C6.2421875,7.34082031 6.19091797,7.21484375 6.08837891,7.12109375 C5.98583984,7.02734375 5.85839844,6.98046875 5.70605469,6.98046875 C5.53613281,6.98046875 5.39990234,7.02880859 5.29736328,7.12548828 C5.19482422,7.22216797 5.14648438,7.34960938 5.15234375,7.5078125 L5.3984375,16.2880859 C5.40429688,16.4521484 5.45703125,16.5810547 5.55664062,16.6748047 C5.65625,16.7685547 5.78808594,16.8154297 5.95214844,16.8154297 Z M8.41308594,16.8154297 C8.57714844,16.8154297 8.71191406,16.7670898 8.81738281,16.6704102 C8.92285156,16.5737305 8.97558594,16.4492188 8.97558594,16.296875 L8.97558594,7.5078125 C8.97558594,7.34960938 8.92285156,7.22216797 8.81738281,7.12548828 C8.71191406,7.02880859 8.57714844,6.98046875 8.41308594,6.98046875 C8.24316406,6.98046875 8.10693359,7.02880859 8.00439453,7.12548828 C7.90185547,7.22216797 7.85058594,7.34960938 7.85058594,7.5078125 L7.85058594,16.296875 C7.85058594,16.4492188 7.90185547,16.5737305 8.00439453,16.6704102 C8.10693359,16.7670898 8.24316406,16.8154297 8.41308594,16.8154297 Z M10.8652344,16.8154297 C11.0292969,16.8154297 11.1611328,16.7685547 11.2607422,16.6748047 C11.3603516,16.5810547 11.4130859,16.4550781 11.4189453,16.296875 L11.6650391,7.5078125 C11.6767578,7.34960938 11.6313477,7.22216797 11.5288086,7.12548828 C11.4262695,7.02880859 11.2900391,6.98046875 11.1201172,6.98046875 C10.9677734,6.98046875 10.840332,7.02734375 10.737793,7.12109375 C10.6352539,7.21484375 10.5810547,7.34375 10.5751953,7.5078125 L10.3291016,16.2880859 C10.3173828,16.4462891 10.3613281,16.5737305 10.4609375,16.6704102 C10.5605469,16.7670898 10.6953125,16.8154297 10.8652344,16.8154297 Z" id="􀈑" fill="#FFFFFF" fill-rule="nonzero"></path>
    </g>
</svg>