<?xml version="1.0" encoding="UTF-8"?>
<svg width="12px" height="12px" viewBox="0 0 12 12" version="1.1" xmlns="http://www.w3.org/2000/svg" xmlns:xlink="http://www.w3.org/1999/xlink">
    <title>􀆄</title>
    <g id="Page-1" stroke="none" stroke-width="1" fill="none" fill-rule="evenodd">
        <path d="M11.4072266,11.3144531 C11.6396484,11.0751953 11.6396484,10.6855469 11.4072266,10.453125 L7.03222656,6.07128906 L11.4072266,1.69628906 C11.6396484,1.46386719 11.6464844,1.06738281 11.4072266,0.834960938 C11.1679688,0.595703125 10.7714844,0.595703125 10.5390625,0.834960938 L6.1640625,5.20996094 L1.7890625,0.834960938 C1.55664062,0.595703125 1.15332031,0.588867188 0.920898438,0.834960938 C0.688476562,1.07421875 0.688476562,1.46386719 0.920898438,1.69628906 L5.29589844,6.07128906 L0.920898438,10.453125 C0.688476562,10.6855469 0.681640625,11.0820312 0.920898438,11.3144531 C1.16015625,11.546875 1.55664062,11.546875 1.7890625,11.3144531 L6.1640625,6.93945312 L10.5390625,11.3144531 C10.7714844,11.546875 11.1748047,11.5537109 11.4072266,11.3144531 Z" id="􀆄" fill="#000000" fill-rule="nonzero"></path>
    </g>
</svg>